Coordinates
version=1
nRows=19
nColumns=24
inDegrees=yes

Units are S.I. units (second, meters, Newtons, ...)
Angles are in degrees.

endheader
time	pelvis_tilt	pelvis_list	pelvis_rotation	pelvis_tx	pelvis_ty	pelvis_tz	hip_flexion_r	hip_adduction_r	hip_rotation_r	knee_angle_r	ankle_angle_r	subtalar_angle_r	mtp_angle_r	hip_flexion_l	hip_adduction_l	hip_rotation_l	knee_angle_l	ankle_angle_l	subtalar_angle_l	mtp_angle_l	lumbar_extension	lumbar_bending	lumbar_rotation
      4.01500000	     -7.91359665	     -1.90169187	     12.35219579	     -1.93430740	     -0.02409736	     -0.31501133	     31.52021178	     -3.11669399	    -11.20533848	     -8.67147625	     -1.90593866	      7.34840035	     13.31327596	     -7.48406931	      0.01181321	     18.94019364	    -14.41223753	      5.99355554	      0.22324141	     14.84094699	      4.72087991	     -0.75996612	     -9.90945194
      4.02000000	     -7.99947025	     -2.03036833	     12.48681578	     -1.92738711	     -0.02490820	     -0.31466349	     31.54109816	     -3.04153867	    -11.56612967	     -9.21366139	     -2.41676650	      7.08133811	     13.51029117	     -7.54864478	     -0.22078160	     18.89383601	    -14.88235625	      5.82982832	      0.71264148	     14.80791559	      5.05783087	     -0.63894772	     -9.99463252
      4.02500000	     -8.12584684	     -2.10117469	     12.53075543	     -1.92056873	     -0.02577026	     -0.31405386	     31.64198598	     -2.96978752	    -11.72540289	     -9.76569627	     -3.22572475	      6.59727020	     14.27867881	     -7.51175490	     -0.39862265	     18.47343735	    -15.43629356	      5.66389861	      1.59510807	     15.19747225	      5.39552884	     -0.59980180	     -9.94094291
      4.03000000	     -8.24712367	     -2.28413138	     12.55041582	     -1.91358333	     -0.02651477	     -0.31353414	     31.72075804	     -2.77540350	    -11.88018533	    -10.24499894	     -4.23023379	      6.03638112	     15.10583267	     -7.48365276	     -0.68759154	     18.10091765	    -15.93198484	      5.24521302	      2.18273992	     15.86987207	      5.79427759	     -0.41404444	     -9.90782036
      4.03500000	     -8.34646623	     -2.50404330	     12.64065775	     -1.90677262	     -0.02715445	     -0.31305007	     31.81766273	     -2.57730164	    -12.07783944	    -10.81024684	     -5.06541668	      5.52254731	     15.36724354	     -7.42081075	     -1.02279661	     17.88193714	    -16.49716273	      4.90136912	      2.86204947	     16.39766265	      6.13989282	     -0.19477118	     -9.93224187
      4.04000000	     -8.45534438	     -2.75673040	     12.53236226	     -1.89984684	     -0.02774578	     -0.31234265	     31.94732654	     -2.22214328	    -11.92467332	    -11.34289346	     -6.10241854	      4.83461748	     15.91103686	     -7.35481465	     -1.38358355	     17.32750595	    -17.02582147	      4.30839988	      3.45292940	     17.42679140	      6.52036117	      0.08905966	     -9.74648105
      4.04500000	     -8.55571835	     -3.08136053	     12.57731203	     -1.89306582	     -0.02817443	     -0.31177473	     32.08714564	     -1.87352735	    -11.91937473	    -11.93760045	     -6.91958417	      4.24181189	     15.91852922	     -7.19353078	     -1.83423716	     16.92774264	    -17.69049554	      3.87542789	      4.31067816	     18.04450676	      6.88795213	      0.42380685	     -9.76595588
      4.05000000	     -8.65984150	     -3.43658287	     12.47022325	     -1.88624109	     -0.02855298	     -0.31101827	     32.26320449	     -1.38474484	    -11.56849556	    -12.55787021	     -7.74425560	      3.49582454	     15.86391614	     -7.00985739	     -2.31231022	     16.27209314	    -18.37660866	      3.30435965	      5.17376842	     18.90789233	      7.26771703	      0.81301022	     -9.60722564
      4.05500000	     -8.74824060	     -3.81952636	     12.34066597	     -1.87946151	     -0.02881274	     -0.31024222	     32.44788958	     -0.83765662	    -11.09143999	    -13.22781355	     -8.48775101	      2.74169364	     15.68894082	     -6.80835984	     -2.82629998	     15.58192110	    -19.09042174	      2.62710675	      6.04788334	     19.91723134	      7.62679295	      1.24501675	     -9.46042390
      4.06000000	     -8.81212809	     -4.20736335	     12.15070338	     -1.87266511	     -0.02892380	     -0.30940433	     32.61979553	     -0.22090399	    -10.42760119	    -13.93833341	     -9.13402543	      1.92223145	     15.23251185	     -6.64844414	     -3.35232197	     14.89374152	    -19.71912791	      1.53332786	      6.63998078	     21.69909634	      7.95739492	      1.70201257	     -9.24262761
      4.06500000	     -8.87621123	     -4.63712037	     11.97077197	     -1.86587916	     -0.02898370	     -0.30856722	     32.80529095	      0.44385310	     -9.73912497	    -14.69179860	     -9.57752850	      1.19100722	     14.61065222	     -6.39591601	     -3.93534321	     14.07112847	    -20.52321364	      0.65655512	      7.60903515	     22.90235811	      8.29500331	      2.19959350	     -9.07687121
      4.07000000	     -8.92516510	     -5.06205231	     11.76929003	     -1.85907039	     -0.02894305	     -0.30770474	     32.97101861	      1.13997836	     -8.98192754	    -15.46067583	     -9.91306754	      0.42613663	     13.83313700	     -6.13065067	     -4.52720227	     13.19179485	    -21.36656877	     -0.34573876	      8.61437759	     24.12170870	      8.61480908	      2.69956110	     -8.89398467
      4.07500000	     -8.94921150	     -5.48605179	     11.53517457	     -1.85217935	     -0.02882020	     -0.30681426	     33.09694000	      1.87334529	     -8.18496580	    -16.23927473	    -10.05176292	     -0.26596957	     12.87651168	     -5.88046674	     -5.13684444	     12.25868142	    -22.21892650	     -1.51708490	      9.61095011	     25.50979387	      8.91696301	      3.21083370	     -8.69529275
      4.08000000	     -8.94640960	     -5.84810394	     11.31979657	     -1.84535892	     -0.02863826	     -0.30592765	     33.17255746	      2.55132420	     -7.37601212	    -17.00959066	    -10.09198258	     -0.92363145	     12.11645898	     -5.60702035	     -5.70164766	     11.31120255	    -23.17696350	     -2.67562949	     10.79541601	     26.60908952	      9.15953072	      3.65486476	     -8.53666036
      4.08500000	     -8.88759990	     -6.23502711	     11.05602114	     -1.83842952	     -0.02833600	     -0.30508640	     33.17023936	      3.28658214	     -6.64407649	    -17.79740098	     -9.74349564	     -1.28867376	     10.65890489	     -5.41643613	     -6.30362113	     10.34621492	    -24.03566177	     -4.29961181	     11.56945717	     28.52692752	      9.35782404	      4.16429016	     -8.31213556
      4.09000000	     -8.87077158	     -6.56525010	     10.85030367	     -1.83159188	     -0.02804718	     -0.30422894	     33.16107406	      3.94106862	     -5.95413398	    -18.46780949	     -9.73049490	     -1.98155168	      9.97309472	     -5.08774684	     -6.85341688	      9.43266350	    -25.10912951	     -5.65844329	     12.69042050	     29.33289597	      9.57578202	      4.57476195	     -8.17189975
      4.09500000	     -8.78536050	     -6.88009704	     10.61558487	     -1.82461148	     -0.02764933	     -0.30343054	     33.03375502	      4.59304641	     -5.38809131	    -19.12635068	     -9.25165392	     -2.26705654	      8.83473555	     -4.87136835	     -7.40796376	      8.51797838	    -26.06044930	     -7.46335409	     13.49595098	     30.92923338	      9.73755826	      5.00341722	     -7.99776910
      4.10000000	     -8.75145152	     -7.13676540	     10.41951535	     -1.81771029	     -0.02728872	     -0.30259530	     32.90353716	      5.16480049	     -4.85724827	    -19.66056165	     -9.06170068	     -2.80614442	      8.42812318	     -4.52622657	     -7.90021049	      7.69882329	    -27.19020865	     -9.03460732	     14.54388266	     31.49178481	      9.93426796	      5.33517449	     -7.87013675
      4.10500000	     -8.67804412	     -7.35777883	     10.22773085	     -1.81096145	     -0.02683518	     -0.30180468	     32.68791593	      5.69476895	     -4.37895781	    -20.12784308	     -8.77410591	     -3.17994826	      7.93210943	     -4.19103109	     -8.35917203	      6.93381331	    -28.32014277	    -10.86146711	     15.35664821	     32.42307218	     10.04666158	      5.64649729	     -7.75221494
